<?xml version="1.0" standalone="no"?>
<!DOCTYPE svg PUBLIC "-//W3C//DTD SVG 20010904//EN"
 "http://www.w3.org/TR/2001/REC-SVG-20010904/DTD/svg10.dtd">
<svg version="1.0" xmlns="http://www.w3.org/2000/svg"
 width="525.000000pt" height="475.000000pt" viewBox="0 0 525.000000 475.000000"
 preserveAspectRatio="xMidYMid meet">

<g transform="translate(0.000000,475.000000) scale(0.100000,-0.100000)"
fill="#000000" stroke="none">
<path d="M2632 4095 c0 -16 2 -22 5 -12 2 9 2 23 0 30 -3 6 -5 -1 -5 -18z"/>
<path d="M2842 4032 c-7 -9 -10 -11 -6 -4 4 10 -4 13 -38 10 -43 -3 -43 -3
-50 -48 -11 -79 -63 -236 -109 -334 -38 -82 -13 -59 29 26 23 46 50 99 61 118
108 194 155 289 113 232z"/>
<path d="M3854 3590 c3 -14 6 -35 6 -47 0 -13 5 -23 11 -23 12 0 3 55 -13 80
-7 11 -8 8 -4 -10z"/>
<path d="M1336 3574 c-4 -14 -5 -28 -3 -31 3 -2 8 8 11 23 4 14 5 28 3 31 -3
2 -8 -8 -11 -23z"/>
<path d="M2278 3490 l-23 -19 37 -1 c20 0 38 -6 41 -12 2 -7 8 -10 12 -6 11
11 -1 35 -24 47 -15 8 -24 6 -43 -9z"/>
<path d="M2872 3494 c-12 -8 -22 -22 -22 -31 0 -14 2 -14 19 1 13 12 27 15 45
10 28 -7 34 4 14 24 -16 16 -29 15 -56 -4z"/>
<path d="M3800 3405 c-7 -9 -11 -17 -9 -20 3 -2 10 5 17 15 14 24 10 26 -8 5z"/>
<path d="M1410 3376 c0 -2 8 -10 18 -17 15 -13 16 -12 3 4 -13 16 -21 21 -21
13z"/>
<path d="M3718 3340 c-31 -21 -97 -54 -145 -73 -48 -19 -95 -37 -103 -41 -8
-3 5 -3 30 1 25 4 55 7 67 7 11 1 19 5 16 10 -3 4 4 5 16 1 16 -5 20 -3 15 9
-4 12 -2 15 9 10 19 -7 60 14 52 27 -4 5 1 10 9 10 9 1 21 2 28 3 7 0 18 12
25 26 7 14 13 21 13 17 0 -5 7 -1 16 8 30 30 10 23 -48 -15z m-58 -60 c-20
-13 -33 -13 -25 0 3 6 14 10 23 10 15 0 15 -2 2 -10z"/>
<path d="M1260 3343 c1 -12 51 -46 58 -39 11 11 -14 41 -37 44 -11 2 -21 0
-21 -5z"/>
<path d="M3915 3330 c-21 -23 -19 -32 6 -28 12 2 28 13 36 25 14 20 13 22 -7
20 -11 -1 -27 -9 -35 -17z"/>
<path d="M1534 3295 c11 -8 24 -15 29 -15 4 0 5 -5 1 -11 -4 -8 1 -9 16 -4 17
5 21 4 15 -5 -6 -9 -4 -11 4 -6 16 10 10 15 -41 38 -30 12 -37 14 -24 3z"/>
<path d="M1105 3289 c-4 -6 -5 -11 -4 -13 74 -47 91 -56 99 -51 18 11 10 35
-14 45 -13 5 -27 14 -31 19 -8 14 -42 14 -50 0z"/>
<path d="M4052 3272 c-20 -16 -22 -20 -9 -31 10 -8 17 -9 22 -1 3 5 11 10 16
10 6 0 7 -5 3 -12 -4 -7 -3 -8 4 -4 16 10 15 56 0 56 -7 0 -23 -9 -36 -18z"/>
<path d="M4530 3270 c0 -21 17 -46 25 -38 4 4 0 17 -9 30 -10 14 -16 17 -16 8z"/>
<path d="M4210 3205 c0 -8 -8 -12 -20 -10 -24 5 -26 -8 -5 -25 8 -7 12 -17 8
-23 -3 -6 -1 -7 5 -3 6 3 17 20 25 36 13 24 13 30 1 34 -8 3 -14 -1 -14 -9z"/>
<path d="M4550 3215 c0 -4 5 -15 11 -26 6 -11 12 -28 14 -37 2 -9 11 -42 20
-72 16 -56 32 -124 40 -170 13 -79 17 -377 6 -462 -13 -94 -87 -342 -100 -334
-4 3 -7 -3 -7 -12 -1 -9 -4 -26 -8 -37 -4 -11 4 -2 18 20 35 54 82 177 114
299 25 93 27 115 26 291 -1 181 -2 196 -33 310 -31 117 -71 218 -91 230 -6 3
-10 3 -10 0z"/>
<path d="M1065 3150 c-12 -54 30 -80 59 -38 22 31 20 35 -14 53 -38 20 -37 20
-45 -15z"/>
<path d="M1010 3001 c-14 -27 -14 -27 20 -41 35 -14 35 -14 43 21 6 22 3 28
-16 33 -33 9 -35 8 -47 -13z"/>
<path d="M998 2858 c-9 -26 5 -66 27 -76 29 -13 35 -7 35 33 0 24 -6 35 -25
43 -32 15 -32 15 -37 0z m27 -8 c3 -5 1 -10 -4 -10 -6 0 -11 5 -11 10 0 6 2
10 4 10 3 0 8 -4 11 -10z"/>
<path d="M2409 2792 c-19 -31 -47 -84 -61 -117 -28 -66 -46 -131 -28 -105 5 8
10 21 10 27 0 18 52 128 89 192 43 72 34 75 -10 3z"/>
<path d="M3145 2748 c-11 -6 -31 -24 -44 -41 -14 -18 -16 -25 -7 -16 17 16 20
16 47 0 20 -10 28 -22 25 -33 -2 -10 0 -18 5 -18 5 0 9 -7 9 -15 0 -8 5 -15
12 -15 6 0 3 -7 -8 -16 -10 -8 -13 -13 -6 -9 6 3 12 0 13 -7 7 -95 -3 -195
-27 -269 -9 -30 -20 -58 -24 -64 -4 -5 -13 -27 -20 -48 -11 -36 -10 -39 22
-75 37 -41 40 -40 70 13 105 187 168 308 168 320 0 42 -100 194 -172 261 -35
33 -47 39 -63 32z"/>
<path d="M1016 2668 c-15 -47 -13 -56 16 -73 16 -9 31 -15 33 -13 8 7 -8 87
-16 82 -5 -3 -9 0 -9 5 0 15 -20 14 -24 -1z m34 -41 c0 -4 -7 -2 -15 7 -8 8
-15 21 -15 28 1 14 30 -20 30 -35z"/>
<path d="M4621 2664 c0 -11 3 -14 6 -6 3 7 2 16 -1 19 -3 4 -6 -2 -5 -13z"/>
<path d="M4604 2593 c4 -10 4 -14 0 -10 -4 4 -14 -2 -21 -13 -8 -11 -19 -18
-24 -15 -5 4 -9 1 -9 -4 0 -6 5 -11 11 -11 6 0 9 -6 7 -12 -3 -7 -11 -13 -19
-13 -8 0 -14 -10 -13 -22 0 -12 -3 -20 -6 -18 -4 3 -15 -33 -25 -78 -64 -298
-251 -582 -526 -798 -74 -59 -78 -64 -57 -72 36 -14 157 -18 179 -6 11 5 16
15 13 21 -4 6 -3 9 2 5 5 -3 32 18 59 46 28 28 35 38 18 22 -50 -44 -39 -25
14 25 26 25 41 36 33 25 -15 -20 -15 -20 8 -1 12 11 21 25 18 33 -3 7 5 20 18
30 12 10 22 20 22 23 -1 3 9 19 22 35 15 21 20 24 16 10 -4 -15 -4 -17 4 -6 6
8 8 20 5 28 -3 7 0 13 5 13 6 0 14 9 17 20 4 11 10 18 14 16 4 -3 13 -1 21 5
12 7 12 9 -3 9 -10 0 -15 5 -12 10 4 6 11 8 16 5 5 -4 9 -1 9 5 0 6 5 8 12 4
7 -4 8 -3 4 5 -4 6 -13 8 -19 4 -6 -4 -2 9 11 28 14 23 28 33 42 32 11 -2 20
2 20 8 0 5 -5 7 -12 3 -15 -10 -6 49 16 96 16 34 16 34 11 5 -5 -27 -4 -28 7
-10 6 11 13 39 14 62 2 24 6 49 10 55 5 7 9 19 10 28 1 8 12 51 23 95 35 138
40 160 47 229 5 50 4 66 -6 66 -7 0 -10 -7 -6 -17z"/>
<path d="M4431 2542 c-6 -11 -7 -31 -2 -48 7 -28 8 -27 14 16 7 51 3 60 -12
32z"/>
<path d="M2290 2503 c-8 -26 -18 -51 -24 -55 -7 -5 -5 -8 5 -8 11 0 19 16 27
51 16 66 9 75 -8 12z"/>
<path d="M1040 2488 c-2 -9 -3 -42 -1 -59 1 -5 6 -7 11 -4 6 3 10 1 10 -6 0
-14 30 -38 48 -39 10 0 9 5 -3 16 -13 14 -14 19 -3 25 9 6 7 9 -8 9 -12 0 -24
7 -28 15 -3 8 -1 15 4 15 6 0 10 5 10 11 0 6 -6 9 -14 6 -8 -3 -17 -1 -20 6
-2 7 -5 9 -6 5z"/>
<path d="M1579 2473 c-13 -16 -12 -17 4 -4 9 7 17 15 17 17 0 8 -8 3 -21 -13z"/>
<path d="M2138 2463 c7 -3 16 -2 19 1 4 3 -2 6 -13 5 -11 0 -14 -3 -6 -6z"/>
<path d="M2171 2456 c2 -2 21 -6 42 -10 27 -5 37 -4 32 3 -3 6 -22 11 -42 11
-20 0 -34 -2 -32 -4z"/>
<path d="M1543 2428 c-20 -26 -26 -41 -15 -34 12 7 36 46 29 46 -3 0 -9 -6
-14 -12z"/>
<path d="M3705 2370 c10 -11 20 -20 23 -20 3 0 -3 9 -13 20 -10 11 -20 20 -23
20 -3 0 3 -9 13 -20z"/>
<path d="M1480 2349 c0 -5 5 -7 10 -4 6 3 10 8 10 11 0 2 -4 4 -10 4 -5 0 -10
-5 -10 -11z"/>
<path d="M3730 2331 c0 -5 7 -15 17 -22 15 -13 15 -12 4 9 -12 23 -21 28 -21
13z"/>
<path d="M1126 2262 c-2 -4 4 -19 15 -32 15 -20 19 -22 19 -7 0 9 5 17 10 17
6 0 10 5 10 12 0 6 -3 8 -6 5 -4 -3 -15 -2 -25 3 -10 6 -20 7 -23 2z"/>
<path d="M3100 2191 c0 -7 -5 -9 -12 -5 -7 5 -8 3 -3 -5 5 -9 10 -10 18 -2 6
6 8 14 4 18 -4 3 -7 1 -7 -6z"/>
<path d="M1185 2180 c-16 -7 -17 -9 -3 -9 9 -1 20 4 23 9 7 11 7 11 -20 0z"/>
<path d="M1210 2159 c0 -5 5 -7 10 -4 6 3 10 8 10 11 0 2 -4 4 -10 4 -5 0 -10
-5 -10 -11z"/>
<path d="M3040 2052 c-13 -23 -27 -42 -32 -42 -4 0 -8 -9 -8 -21 0 -14 -5 -19
-15 -16 -8 4 -17 2 -20 -4 -4 -5 -2 -8 3 -7 9 3 12 -1 12 -20 0 -5 -8 -17 -18
-28 -18 -19 -22 -26 -22 -44 0 -6 -9 -6 -25 0 -29 11 -31 8 -9 -14 13 -14 13
-18 1 -36 -7 -11 -17 -17 -20 -13 -4 3 -7 -3 -7 -13 0 -20 -17 -44 -31 -44 -4
0 -12 14 -19 30 -7 17 -15 29 -17 26 -7 -6 27 -108 39 -121 23 -24 178 191
221 305 21 55 21 61 4 85 -13 17 -16 15 -37 -23z"/>
<path d="M1320 2006 c0 -2 8 -10 18 -17 15 -13 16 -12 3 4 -13 16 -21 21 -21
13z"/>
<path d="M1463 1818 c16 -11 24 -25 20 -31 -4 -7 -1 -7 9 1 13 10 18 10 24 1
5 -8 3 -9 -6 -4 -8 5 -11 3 -8 -6 3 -8 10 -13 16 -12 6 2 9 -4 6 -11 -3 -9 3
-17 15 -21 12 -3 19 -11 16 -16 -4 -5 8 -9 24 -9 20 0 31 5 31 14 0 24 -105
106 -141 110 l-33 4 27 -20z"/>
<path d="M1785 1818 c21 -68 72 -117 175 -166 247 -117 594 -142 797 -57 30
13 33 17 27 42 -12 48 -19 57 -35 41 -8 -8 -29 -13 -46 -12 -18 1 -33 -2 -33
-7 0 -5 -12 -9 -26 -9 -19 0 -25 -4 -20 -15 3 -9 0 -15 -9 -15 -9 0 -12 6 -9
18 5 13 4 14 -4 3 -5 -7 -15 -11 -21 -7 -7 5 -9 1 -5 -8 3 -9 2 -16 -4 -16 -6
0 -13 6 -15 13 -3 7 -6 5 -6 -5 -1 -19 -10 -20 -138 -21 -40 0 -63 -4 -63 -11
0 -6 -5 -4 -10 4 -5 8 -10 10 -10 4 0 -9 -38 -12 -47 -4 -9 7 -29 4 -35 -5 -5
-7 -8 -6 -8 1 0 6 -11 10 -25 9 -14 -2 -25 1 -25 6 0 5 -10 9 -23 9 -12 0 -31
6 -42 14 -11 7 -28 12 -37 10 -10 -1 -20 2 -24 7 -3 5 -12 9 -20 9 -8 0 -20 5
-27 11 -7 6 -34 24 -62 40 -63 38 -109 71 -115 84 -8 18 -43 55 -52 55 -5 0
-6 -10 -3 -22z"/>
<path d="M4287 1723 c-4 -3 -7 -11 -7 -17 0 -6 5 -5 12 2 6 6 9 14 7 17 -3 3
-9 2 -12 -2z"/>
<path d="M1150 1671 c0 -6 4 -13 10 -16 6 -3 7 1 4 9 -7 18 -14 21 -14 7z"/>
<path d="M3477 1605 c-18 -20 -49 -56 -69 -78 -20 -23 -34 -45 -31 -50 6 -10
50 -2 129 26 47 16 60 25 56 37 -3 8 -10 18 -15 21 -5 4 0 10 12 14 11 3 21
13 21 21 0 8 5 14 11 14 5 0 7 -5 3 -12 -5 -7 -3 -8 6 -3 10 6 9 11 -5 22 -11
7 -27 13 -36 13 -10 0 -25 3 -34 6 -10 4 -26 -6 -48 -31z m90 -7 c-3 -8 -6 -5
-6 6 -1 11 2 17 5 13 3 -3 4 -12 1 -19z"/>
<path d="M1635 1620 c-4 -6 7 -15 24 -21 18 -6 28 -16 24 -21 -3 -6 2 -17 12
-25 18 -12 18 -13 1 -13 -32 0 0 -26 54 -44 79 -26 86 -22 49 27 -66 85 -91
107 -125 107 -18 0 -36 -5 -39 -10z"/>
<path d="M1225 1610 c3 -6 1 -10 -6 -10 -7 0 -10 -3 -6 -6 3 -3 13 -2 22 4 16
8 16 9 1 15 -10 4 -15 3 -11 -3z"/>
<path d="M1257 1584 c-3 -3 -3 -13 1 -22 5 -15 4 -15 -11 -3 -15 12 -17 12
-11 -3 3 -9 10 -16 15 -16 8 0 29 32 29 44 0 8 -15 8 -23 0z"/>
<path d="M1278 1552 c-4 -12 1 -18 12 -19 11 -1 17 5 16 15 -4 23 -23 26 -28
4z"/>
<path d="M1525 1375 c-44 -24 -81 -49 -83 -54 -4 -11 137 -80 231 -113 l66
-22 63 21 c35 12 114 29 176 39 62 10 112 20 111 23 0 3 -20 21 -45 39 -30 22
-56 32 -80 32 -48 0 -228 38 -289 61 -27 10 -54 19 -60 18 -5 0 -46 -20 -90
-44z"/>
<path d="M3322 1409 c-21 -6 -30 -14 -26 -21 6 -9 9 -9 12 0 2 7 12 12 22 12
10 0 22 5 25 10 3 6 5 10 3 9 -2 0 -18 -5 -36 -10z"/>
<path d="M3605 1411 c-16 -15 -214 -52 -303 -57 -77 -4 -87 -7 -133 -41 -27
-21 -49 -41 -49 -45 0 -4 24 -8 53 -8 29 0 78 -4 108 -10 30 -5 68 -11 84 -13
17 -2 48 -12 70 -21 50 -22 84 -26 110 -15 18 9 18 9 -2 5 -13 -2 -23 0 -23 5
0 5 -5 9 -11 9 -5 0 -7 -4 -4 -10 3 -5 2 -10 -4 -10 -17 0 -20 14 -6 33 10 14
14 15 18 3 3 -7 21 -15 40 -18 29 -3 34 -1 32 14 -5 22 11 24 19 2 6 -15 8
-15 31 0 14 9 25 14 25 11 0 -3 18 4 40 15 27 14 38 25 34 35 -7 18 14 47 28
39 6 -4 5 -10 -3 -15 -7 -4 -11 -10 -9 -13 3 -2 16 4 30 15 18 14 20 17 6 12
-13 -4 -17 -3 -12 5 4 7 -19 24 -63 47 -74 37 -91 41 -106 26z m110 -131 c-3
-5 -14 -10 -23 -9 -14 0 -13 2 3 9 27 11 27 11 20 0z m-235 -46 c0 -8 -19 -13
-24 -6 -3 5 1 9 9 9 8 0 15 -2 15 -3z"/>
<path d="M2235 1159 c-44 -5 -105 -17 -135 -28 l-55 -20 70 0 c60 -1 309 -26
332 -33 9 -3 155 53 150 58 -3 4 -266 35 -275 33 -4 -1 -43 -5 -87 -10z"/>
<path d="M2952 1108 c-41 -5 -106 -20 -145 -33 l-72 -25 55 5 c30 2 85 7 121
11 73 6 236 -10 302 -31 40 -12 40 -13 12 -14 -111 -4 -313 -97 -637 -294 -54
-32 -98 -61 -98 -64 0 -5 102 51 143 80 65 44 382 198 461 222 107 34 130 28
40 -10 -150 -62 -478 -240 -496 -268 -4 -7 -8 -7 -8 -2 0 6 -3 5 -8 -1 -4 -6
-29 -22 -57 -36 -27 -14 -49 -30 -48 -36 2 -6 -3 -9 -10 -6 -7 2 -21 -2 -32
-11 -19 -15 -19 -15 10 -9 17 4 35 11 40 18 15 15 43 33 91 56 23 11 47 27 54
35 7 8 19 15 28 15 8 0 23 6 31 14 23 20 152 71 255 101 164 47 306 29 389
-50 40 -38 61 -42 90 -20 11 7 25 11 33 8 8 -3 14 1 14 7 0 7 9 3 20 -10 22
-25 25 -55 11 -94 -9 -22 -7 -25 20 -31 16 -4 29 -11 29 -16 0 -5 9 -13 19
-17 19 -7 19 -9 -9 -67 -16 -33 -30 -63 -30 -66 0 -8 33 -5 48 5 24 14 25 -2
2 -34 -27 -38 -64 -75 -87 -89 -10 -6 -13 -11 -7 -11 27 0 91 61 119 115 28
54 30 66 30 169 0 100 -3 117 -27 169 -32 67 -121 165 -193 212 -132 84 -324
124 -503 103z m622 -453 c3 -8 1 -15 -4 -15 -6 0 -10 7 -10 15 0 8 2 15 4 15
2 0 6 -7 10 -15z m34 -30 c-3 -3 -9 2 -12 12 -6 14 -5 15 5 6 7 -7 10 -15 7
-18z m39 -137 c-3 -8 -6 -5 -6 6 -1 11 2 17 5 13 3 -3 4 -12 1 -19z"/>
<path d="M2237 990 c-65 -27 -146 -67 -180 -89 -67 -44 -162 -134 -117 -111
14 7 27 16 30 19 14 17 79 55 215 126 230 120 242 133 52 55z"/>
<path d="M1746 797 c-5 -15 -6 -31 -2 -34 11 -11 18 5 14 34 l-4 28 -8 -28z"/>
<path d="M2840 671 c-30 -16 -66 -41 -80 -56 l-25 -26 25 -19 c14 -11 29 -20
34 -20 5 0 17 -6 25 -14 20 -17 119 -73 106 -59 -5 5 -45 34 -88 63 -78 53
-85 65 -54 84 12 8 24 5 47 -13 25 -18 34 -20 46 -11 10 9 18 10 27 1 10 -8
19 -6 36 10 l23 21 -33 34 c-18 19 -33 34 -33 34 -1 -1 -26 -14 -56 -29z m80
-62 c0 -6 -4 -7 -10 -4 -5 3 -10 11 -10 16 0 6 5 7 10 4 6 -3 10 -11 10 -16z"/>
<path d="M2215 591 c-243 -125 -396 -163 -501 -127 -26 9 -58 26 -71 38 -13
12 -23 18 -23 13 0 -16 53 -86 72 -96 35 -19 113 -39 151 -39 53 0 177 43 256
89 66 39 271 187 271 196 0 3 -1 4 -2 4 -2 -1 -70 -36 -153 -78z"/>
<path d="M1040 540 c0 -5 5 -10 11 -10 5 0 7 5 4 10 -3 6 -8 10 -11 10 -2 0
-4 -4 -4 -10z"/>
<path d="M2384 534 c-18 -14 -18 -15 4 -4 12 6 22 13 22 15 0 8 -5 6 -26 -11z"/>
<path d="M2345 510 c-3 -5 -1 -10 4 -10 6 0 11 5 11 10 0 6 -2 10 -4 10 -3 0
-8 -4 -11 -10z"/>
<path d="M2286 474 c-11 -8 -16 -14 -10 -14 13 0 39 18 34 24 -3 2 -14 -2 -24
-10z"/>
<path d="M3543 455 c-3 -9 -3 -18 -1 -21 3 -3 8 4 11 16 6 23 -1 27 -10 5z"/>
<path d="M2250 450 c0 -6 -3 -9 -8 -6 -4 2 -15 -2 -25 -9 -12 -8 -14 -15 -8
-20 6 -3 11 -1 11 5 0 6 3 9 8 6 4 -2 15 2 25 9 12 8 14 15 8 20 -6 3 -11 1
-11 -5z"/>
<path d="M2745 430 c-11 -12 -24 -37 -31 -57 -12 -35 -11 -37 18 -65 34 -32
43 -35 34 -13 -3 8 -1 15 3 15 5 0 11 -6 14 -12 8 -25 77 57 77 92 0 19 -52
60 -75 60 -12 0 -30 -9 -40 -20z"/>
<path d="M1635 382 c21 -23 46 -42 54 -42 10 0 7 6 -9 17 -14 9 -38 28 -55 42
-19 16 -16 10 10 -17z"/>
<path d="M2174 407 c-3 -8 -10 -14 -17 -14 -7 0 -34 -10 -62 -21 -38 -16 -44
-21 -22 -19 15 1 27 4 27 8 0 4 20 12 43 18 28 6 44 16 44 26 0 19 -6 19 -13
2z"/>
<path d="M2629 345 c-41 -21 -58 -24 -150 -22 -91 1 -111 -1 -163 -23 -33 -14
-61 -30 -63 -36 -5 -14 78 -58 146 -78 57 -17 155 -19 206 -5 23 6 18 7 -21 4
-89 -7 -237 35 -272 77 -9 12 4 13 84 10 104 -5 164 7 230 44 40 23 74 54 58
54 -5 -1 -30 -12 -55 -25z"/>
<path d="M1720 329 c0 -10 41 -21 68 -19 13 1 28 -3 35 -8 8 -6 33 -5 72 4
l60 14 -57 -4 c-31 -3 -84 1 -117 8 -34 7 -61 9 -61 5z"/>
<path d="M1976 331 c-11 -4 -15 -10 -10 -13 5 -4 18 0 29 8 20 15 12 17 -19 5z"/>
</g>
</svg>
